<svg width="22" height="22" viewBox="0 0 22 22" fill="none" xmlns="http://www.w3.org/2000/svg">
<path d="M4.00436 5.4171L0.761719 2.17446L2.17593 0.760254L5.41857 4.00289H20.6603C21.2126 4.00289 21.6603 4.45061 21.6603 5.00289C21.6603 5.10021 21.6461 5.19702 21.6182 5.29024L19.2182 13.2902C19.0913 13.7132 18.7019 14.0029 18.2603 14.0029H6.00436V16.0029H17.0044V18.0029H5.00436C4.45207 18.0029 4.00436 17.5551 4.00436 17.0029V5.4171ZM5.50436 22.0029C4.67593 22.0029 4.00436 21.3313 4.00436 20.5029C4.00436 19.6744 4.67593 19.0029 5.50436 19.0029C6.33279 19.0029 7.00436 19.6744 7.00436 20.5029C7.00436 21.3313 6.33279 22.0029 5.50436 22.0029ZM17.5044 22.0029C16.6759 22.0029 16.0044 21.3313 16.0044 20.5029C16.0044 19.6744 16.6759 19.0029 17.5044 19.0029C18.3328 19.0029 19.0044 19.6744 19.0044 20.5029C19.0044 21.3313 18.3328 22.0029 17.5044 22.0029Z" fill="#4C57EE"/>
</svg>
