<svg width="24" height="24" viewBox="0 0 24 24" fill="none" xmlns="http://www.w3.org/2000/svg">
<path fill-rule="evenodd" clip-rule="evenodd" d="M3.84999 12C3.84999 7.49887 7.49887 3.84999 12 3.84999C12.8909 3.84999 13.7468 3.99263 14.5471 4.25567C14.9931 4.40225 15.4734 4.15955 15.62 3.71358C15.7666 3.26761 15.5239 2.78725 15.0779 2.64067C14.1084 2.32202 13.0735 2.14999 12 2.14999C6.55999 2.14999 2.14999 6.55999 2.14999 12C2.14999 17.44 6.55999 21.85 12 21.85C17.44 21.85 21.85 17.44 21.85 12C21.85 11.5306 21.4694 11.15 21 11.15C20.5306 11.15 20.15 11.5306 20.15 12C20.15 16.5011 16.5011 20.15 12 20.15C7.49887 20.15 3.84999 16.5011 3.84999 12ZM19.6023 7.59973C19.9336 7.26706 19.9324 6.72888 19.5997 6.39765C19.2671 6.06643 18.7289 6.06759 18.3977 6.40026L12.0496 12.7759L9.62092 10.178C9.30033 9.83511 8.76245 9.817 8.41952 10.1376C8.07659 10.4582 8.05848 10.9961 8.37907 11.339L11.4094 14.5805C11.5669 14.749 11.7862 14.8463 12.0169 14.8499C12.2476 14.8535 12.4699 14.7632 12.6326 14.5997L19.6023 7.59973Z" fill="#39404B"/>
</svg>
