<svg width="24" height="24" viewBox="0 0 24 24" fill="none" xmlns="http://www.w3.org/2000/svg">
<path fill-rule="evenodd" clip-rule="evenodd" d="M6.60534 6.51379C8.19352 7.05876 9.85683 5.96491 10.1523 4.45576C10.334 3.67141 10.5472 3.32841 10.7587 3.15286C10.9629 2.98341 11.3113 2.85 12.068 2.85C12.6537 2.85 12.9861 2.9973 13.2032 3.20131C13.4367 3.42074 13.6532 3.81471 13.7831 4.52742L13.7831 4.52743L13.7839 4.53189C13.9393 5.35916 14.5088 5.98299 15.1708 6.32811C15.8347 6.6742 16.6676 6.7832 17.4528 6.50677C17.4637 6.50292 17.4746 6.49886 17.4853 6.49457C18.2385 6.19431 18.6479 6.20025 18.8979 6.28469C19.1438 6.36774 19.4259 6.59081 19.7748 7.18205C20.1315 7.78636 20.1785 8.10881 20.1375 8.32686C20.0947 8.55515 19.9136 8.89271 19.2771 9.42089L19.2655 9.43073C17.9883 10.5299 17.9883 12.4701 19.2655 13.5693L19.2771 13.5791C19.9136 14.1073 20.0947 14.4449 20.1375 14.6731C20.1785 14.8912 20.1315 15.2136 19.7748 15.818C19.4278 16.4058 19.1415 16.6392 18.8818 16.7328C18.6166 16.8284 18.1994 16.8428 17.4486 16.5868C15.9257 16.0535 14.076 16.9608 13.7816 18.6708C13.6508 19.4305 13.4405 19.7311 13.2525 19.8767C13.0499 20.0337 12.6967 20.15 11.9699 20.15C11.2703 20.15 10.9103 20.0198 10.6987 19.8501C10.4937 19.6856 10.2861 19.3694 10.1574 18.6662C9.86049 16.9591 8.01272 16.054 6.49123 16.5868C5.74046 16.8428 5.32327 16.8284 5.05805 16.7328C4.79831 16.6392 4.512 16.4058 4.16501 15.818C4.16026 15.8099 4.15537 15.8019 4.15036 15.794C3.8453 15.3141 3.81339 14.9815 3.87797 14.7201C3.95055 14.4262 4.18742 14.0489 4.75667 13.5825L4.77246 13.5693C6.07168 12.4512 5.92899 10.5134 4.678 9.52705C4.1104 8.97074 3.93319 8.61708 3.89201 8.36078C3.85282 8.11686 3.90911 7.78513 4.25591 7.19433C4.57397 6.69781 4.86755 6.48717 5.15513 6.39858C5.46389 6.30347 5.90801 6.30481 6.60534 6.51379ZM12.068 1.15C11.1567 1.15 10.3275 1.3016 9.67312 1.84464C9.02735 2.38052 8.7022 3.1744 8.49207 4.08984C8.48954 4.10089 8.48723 4.11198 8.48514 4.12311C8.37908 4.68782 7.70756 5.09965 7.14966 4.90324C7.13771 4.89903 7.12567 4.89509 7.11354 4.89142C6.25003 4.63017 5.42293 4.53726 4.65465 4.77392C3.86508 5.01715 3.27787 5.5639 2.81378 6.29403C2.80877 6.30192 2.80388 6.3099 2.79913 6.31795C2.36737 7.04946 2.08128 7.80733 2.21354 8.63047C2.34329 9.43801 2.84689 10.1206 3.52865 10.7807C3.55386 10.8051 3.58055 10.8279 3.60858 10.849C4.07855 11.2029 4.11424 11.8861 3.66991 12.2752C2.96809 12.8521 2.42396 13.5173 2.22757 14.3124C2.0234 15.139 2.23346 15.9423 2.70802 16.6939C3.14487 17.4308 3.69102 18.0473 4.48188 18.3322C5.27114 18.6165 6.12876 18.5071 7.04411 18.1943L7.04413 18.1944L7.05154 18.1918C7.68662 17.9682 8.38501 18.3908 8.48285 18.9592L8.48281 18.9592L8.48431 18.9674C8.65004 19.8766 8.98174 20.6521 9.63499 21.1762C10.282 21.6952 11.0995 21.85 11.9699 21.85C12.8131 21.85 13.6375 21.7288 14.2935 21.2208C14.9641 20.7014 15.2934 19.9095 15.457 18.9592C15.5548 18.3908 16.2532 17.9682 16.8883 18.1918L16.8883 18.1918L16.8957 18.1943C17.8111 18.5071 18.6687 18.6165 19.4579 18.3322C20.2531 18.0458 20.8008 17.4242 21.2388 16.6821C21.6672 15.9564 21.9636 15.1863 21.8083 14.3594C21.6554 13.5452 21.1034 12.8868 20.3696 12.2765C19.887 11.8565 19.887 11.1435 20.3696 10.7235C21.1034 10.1132 21.6554 9.45484 21.8083 8.64064C21.9636 7.81369 21.6672 7.04364 21.2388 6.31795C20.8028 5.57919 20.2508 4.94727 19.4418 4.67406C18.6426 4.40414 17.7828 4.54865 16.8749 4.90786C16.5837 5.00576 16.2451 4.97099 15.9567 4.82065C15.6627 4.6674 15.4964 4.43703 15.455 4.21979C15.2904 3.31865 14.9672 2.52618 14.3673 1.96244C13.7503 1.38271 12.9543 1.15 12.068 1.15ZM9.84998 11.5C9.84998 10.3126 10.8126 9.35 12 9.35C13.1874 9.35 14.15 10.3126 14.15 11.5C14.15 12.6874 13.1874 13.65 12 13.65C10.8126 13.65 9.84998 12.6874 9.84998 11.5ZM12 7.65C9.87369 7.65 8.14998 9.3737 8.14998 11.5C8.14998 13.6263 9.87369 15.35 12 15.35C14.1263 15.35 15.85 13.6263 15.85 11.5C15.85 9.3737 14.1263 7.65 12 7.65Z" fill="#39404B"/>
</svg>
