<svg width="20" height="20" viewBox="0 0 20 20" fill="none" xmlns="http://www.w3.org/2000/svg">
<path d="M7.47112 14.9998C7.26893 16.4133 6.05335 17.4998 4.58398 17.4998C3.11462 17.4998 1.89903 16.4133 1.69685 14.9998H0.833984V4.99984C0.833984 4.5396 1.20708 4.1665 1.66732 4.1665H13.334C13.7942 4.1665 14.1673 4.5396 14.1673 4.99984V6.6665H16.6673L19.1673 10.0463V14.9998H17.4711C17.2689 16.4133 16.0533 17.4998 14.584 17.4998C13.1146 17.4998 11.8991 16.4133 11.6968 14.9998H7.47112ZM12.5007 5.83317H2.50065V12.5419C3.03003 12.0017 3.76787 11.6665 4.58398 11.6665C5.74748 11.6665 6.75186 12.3478 7.21997 13.3332H11.948C12.0877 13.039 12.2753 12.7718 12.5007 12.5419V5.83317ZM14.1673 10.8332H17.5006V10.5957L15.8271 8.33317H14.1673V10.8332ZM14.584 15.8332C15.1282 15.8332 15.5912 15.4853 15.7628 14.9998C15.8089 14.8695 15.834 14.7293 15.834 14.5832C15.834 13.8928 15.2743 13.3332 14.584 13.3332C13.8937 13.3332 13.334 13.8928 13.334 14.5832C13.334 14.7293 13.3591 14.8695 13.4051 14.9998C13.5767 15.4853 14.0397 15.8332 14.584 15.8332ZM5.83398 14.5832C5.83398 13.8928 5.27434 13.3332 4.58398 13.3332C3.89363 13.3332 3.33398 13.8928 3.33398 14.5832C3.33398 14.7293 3.35905 14.8695 3.40511 14.9998C3.57671 15.4853 4.03973 15.8332 4.58398 15.8332C5.12824 15.8332 5.59126 15.4853 5.76286 14.9998C5.80892 14.8695 5.83398 14.7293 5.83398 14.5832Z" fill="#61666F"/>
</svg>
